<svg width="25" height="24" viewBox="0 0 25 24" fill="none" xmlns="http://www.w3.org/2000/svg">
<path fill-rule="evenodd" clip-rule="evenodd" d="M12.3086 6.81066e-07C9.38603 -0.00097125 6.55856 1.03835 4.33238 2.93188C2.10621 4.82541 0.62671 7.44951 0.158771 10.3344C-0.309168 13.2192 0.265011 16.1764 1.77851 18.6765C3.292 21.1767 5.64598 23.0565 8.419 23.9793C9.03025 24.0934 9.25845 23.7124 9.25845 23.3864C9.25845 23.093 9.24826 22.1252 9.24215 21.0963C5.81915 21.84 5.09787 19.6456 5.09787 19.6456C4.53756 18.2193 3.73071 17.8444 3.73071 17.8444C2.61416 17.0804 3.81425 17.0967 3.81425 17.0967C5.05101 17.1843 5.70097 18.364 5.70097 18.364C6.79918 20.2446 8.57996 19.7026 9.28086 19.3827C9.39292 18.5881 9.71077 18.0461 10.0633 17.7385C7.33912 17.4308 4.45606 16.3754 4.45606 11.6606C4.43777 10.436 4.89244 9.25157 5.72542 8.35375C5.59706 8.04405 5.1753 6.79303 5.8436 5.09375C5.8436 5.09375 6.87661 4.76368 9.22789 6.35496C11.2454 5.80347 13.3739 5.80347 15.3913 6.35496C17.7304 4.77183 18.7715 5.09375 18.7715 5.09375C19.4398 6.78895 19.0201 8.03998 18.8918 8.35375C19.7225 9.25106 20.1756 10.4339 20.157 11.6565C20.157 16.3835 17.2801 17.4227 14.5396 17.7283C14.9797 18.1093 15.373 18.8591 15.373 20.0062C15.373 21.6525 15.3608 22.9789 15.3608 23.3824C15.3608 23.7104 15.5808 24.0934 16.2043 23.9732C18.9733 23.0469 21.3226 21.166 22.8324 18.6668C24.3422 16.1676 24.914 13.2129 24.4456 10.3309C23.9773 7.44881 22.4993 4.82724 20.2759 2.93468C18.0524 1.04212 15.2284 0.0019247 12.3086 6.81066e-07Z" fill="#9DA9A0"/>
</svg>
