<svg width="24" height="24" viewBox="0 0 24 24" fill="none" xmlns="http://www.w3.org/2000/svg">
<path d="M12.0055 0.181641C7.07078 0.181641 5.62756 0.186732 5.34702 0.210004C4.33432 0.294186 3.70416 0.453641 3.01764 0.795459C2.48856 1.05819 2.0713 1.36273 1.65949 1.78964C0.909518 2.56819 0.454986 3.526 0.290445 4.66455C0.210448 5.21728 0.187176 5.33 0.182449 8.15328C0.180631 9.09437 0.182449 10.3329 0.182449 11.9942C0.182449 16.9251 0.187903 18.3669 0.211539 18.6469C0.293354 19.6324 0.447895 20.2524 0.775158 20.9306C1.40059 22.2287 2.5951 23.2033 4.00233 23.5669C4.48959 23.6924 5.02776 23.7615 5.71864 23.7942C6.01136 23.8069 8.99491 23.816 11.9803 23.816C14.9656 23.816 17.951 23.8124 18.2364 23.7978C19.0364 23.7602 19.501 23.6978 20.0146 23.5651C21.4309 23.1996 22.6036 22.2396 23.2417 20.9233C23.5626 20.2615 23.7254 19.6178 23.799 18.6838C23.815 18.4802 23.8217 15.2335 23.8217 11.9911C23.8217 8.74819 23.8145 5.50746 23.7985 5.30382C23.7239 4.35473 23.5612 3.71655 23.2299 3.042C22.9581 2.48982 22.6563 2.07746 22.2181 1.65582C21.4362 0.908913 20.4798 0.454368 19.3402 0.290004C18.7881 0.210186 18.6781 0.18655 15.8527 0.181641H12.0055Z" fill="#9DA9A0"/>
<path d="M12.0055 0.181641C7.07078 0.181641 5.62756 0.186732 5.34702 0.210004C4.33432 0.294186 3.70416 0.453641 3.01764 0.795459C2.48856 1.05819 2.0713 1.36273 1.65949 1.78964C0.909518 2.56819 0.454986 3.526 0.290445 4.66455C0.210448 5.21728 0.187176 5.33 0.182449 8.15328C0.180631 9.09437 0.182449 10.3329 0.182449 11.9942C0.182449 16.9251 0.187903 18.3669 0.211539 18.6469C0.293354 19.6324 0.447895 20.2524 0.775158 20.9306C1.40059 22.2287 2.5951 23.2033 4.00233 23.5669C4.48959 23.6924 5.02776 23.7615 5.71864 23.7942C6.01136 23.8069 8.99491 23.816 11.9803 23.816C14.9656 23.816 17.951 23.8124 18.2364 23.7978C19.0364 23.7602 19.501 23.6978 20.0146 23.5651C21.4309 23.1996 22.6036 22.2396 23.2417 20.9233C23.5626 20.2615 23.7254 19.6178 23.799 18.6838C23.815 18.4802 23.8217 15.2335 23.8217 11.9911C23.8217 8.74819 23.8145 5.50746 23.7985 5.30382C23.7239 4.35473 23.5612 3.71655 23.2299 3.042C22.9581 2.48982 22.6563 2.07746 22.2181 1.65582C21.4362 0.908913 20.4798 0.454368 19.3402 0.290004C18.7881 0.210186 18.6781 0.18655 15.8527 0.181641H12.0055Z" fill="#9DA9A0"/>
<path d="M12.0002 3.27246C9.63009 3.27246 9.33264 3.28282 8.40176 3.32519C7.4727 3.36773 6.83854 3.51482 6.28364 3.73064C5.70966 3.95355 5.22277 4.25173 4.73769 4.73701C4.25225 5.2221 3.95408 5.70901 3.73045 6.28282C3.51409 6.83792 3.36682 7.47228 3.325 8.40101C3.28337 9.33192 3.27246 9.62955 3.27246 11.9997C3.27246 14.3699 3.28301 14.6665 3.32519 15.5974C3.36791 16.5265 3.515 17.1606 3.73063 17.7156C3.95371 18.2896 4.25189 18.7765 4.73714 19.2616C5.22204 19.747 5.70893 20.0459 6.28255 20.2688C6.83781 20.4846 7.47215 20.6317 8.40103 20.6743C9.33191 20.7166 9.62918 20.727 11.9991 20.727C14.3694 20.727 14.6659 20.7166 15.5968 20.6743C16.5259 20.6317 17.1608 20.4846 17.716 20.2688C18.2898 20.0459 18.776 19.747 19.2609 19.2616C19.7463 18.7765 20.0445 18.2896 20.2681 17.7157C20.4827 17.1606 20.6299 16.5263 20.6736 15.5976C20.7154 14.6666 20.7263 14.3699 20.7263 11.9997C20.7263 9.62955 20.7154 9.3321 20.6736 8.40119C20.6299 7.4721 20.4827 6.83792 20.2681 6.28301C20.0445 5.70901 19.7463 5.2221 19.2609 4.73701C18.7754 4.25155 18.29 3.95337 17.7155 3.73064C17.1591 3.51482 16.5246 3.36773 15.5955 3.32519C14.6647 3.28282 14.3683 3.27246 11.9975 3.27246H12.0002ZM11.2173 4.84519C11.4497 4.84482 11.7089 4.84519 12.0002 4.84519C14.3303 4.84519 14.6065 4.85355 15.5266 4.89537C16.3775 4.93428 16.8393 5.07646 17.1469 5.19592C17.5542 5.3541 17.8446 5.54319 18.1498 5.84864C18.4553 6.1541 18.6444 6.44501 18.8029 6.85228C18.9224 7.15955 19.0647 7.62137 19.1034 8.47228C19.1453 9.39228 19.1543 9.66864 19.1543 11.9977C19.1543 14.3268 19.1453 14.6032 19.1034 15.5232C19.0645 16.3741 18.9224 16.8359 18.8029 17.1432C18.6447 17.5505 18.4553 17.8405 18.1498 18.1457C17.8444 18.4512 17.5544 18.6403 17.1469 18.7985C16.8397 18.9185 16.3775 19.0603 15.5266 19.0992C14.6067 19.141 14.3303 19.1501 12.0002 19.1501C9.6699 19.1501 9.39373 19.141 8.47376 19.0992C7.62288 19.0599 7.16107 18.9177 6.85326 18.7983C6.446 18.6401 6.1551 18.451 5.84966 18.1456C5.54421 17.8401 5.35513 17.5499 5.19658 17.1425C5.07713 16.8352 4.93477 16.3734 4.89605 15.5225C4.85423 14.6025 4.84587 14.3261 4.84587 11.9956C4.84587 9.66501 4.85423 9.3901 4.89605 8.4701C4.93496 7.61919 5.07713 7.15737 5.19658 6.84973C5.35476 6.44246 5.54421 6.15155 5.84966 5.8461C6.1551 5.54064 6.446 5.35155 6.85326 5.19301C7.16089 5.07301 7.62288 4.93119 8.47376 4.8921C9.27883 4.85573 9.59082 4.84482 11.2173 4.84301V4.84519ZM16.6586 6.29428C16.0804 6.29428 15.6114 6.76282 15.6114 7.34119C15.6114 7.91937 16.0804 8.38846 16.6586 8.38846C17.2368 8.38846 17.7058 7.91937 17.7058 7.34119C17.7058 6.76301 17.2368 6.29392 16.6586 6.29392V6.29428ZM12.0002 7.51792C9.52518 7.51792 7.51851 9.52464 7.51851 11.9997C7.51851 14.4748 9.52518 16.4806 12.0002 16.4806C14.4752 16.4806 16.4812 14.4748 16.4812 11.9997C16.4812 9.52464 14.4752 7.51792 12.0002 7.51792ZM12.0002 9.09064C13.6067 9.09064 14.9092 10.393 14.9092 11.9997C14.9092 13.6063 13.6067 14.9088 12.0002 14.9088C10.3935 14.9088 9.09119 13.6063 9.09119 11.9997C9.09119 10.393 10.3935 9.09064 12.0002 9.09064Z" fill="white"/>
</svg>
