<svg width="30" height="24" viewBox="0 0 30 24" fill="none" xmlns="http://www.w3.org/2000/svg">
<path d="M9.43478 24C20.7563 24 26.9471 14.7674 26.9471 6.76146C26.9471 6.49923 26.9417 6.23817 26.9298 5.97829C28.1316 5.12307 29.1762 4.05581 30 2.8409C28.8972 3.32344 27.7104 3.64828 26.4654 3.79476C27.7362 3.04467 28.7118 1.8581 29.172 0.443553C27.9828 1.13754 26.6658 1.64193 25.2636 1.91421C24.1403 0.736505 22.5413 0 20.7707 0C17.3717 0 14.6152 2.71333 14.6152 6.05803C14.6152 6.53348 14.6692 6.99594 14.7749 7.4395C9.6592 7.18612 5.12316 4.77519 2.08773 1.10919C1.55912 2.00458 1.25432 3.04466 1.25432 4.15445C1.25432 6.25648 2.34093 8.11222 3.99335 9.19778C2.98354 9.16707 2.03493 8.8942 1.20572 8.44001C1.20481 8.46544 1.20482 8.49022 1.20482 8.51739C1.20482 11.4516 3.32643 13.9015 6.14286 14.4567C5.62566 14.5955 5.08145 14.6699 4.51985 14.6699C4.12384 14.6699 3.73804 14.6315 3.36303 14.5607C4.14664 16.968 6.41887 18.7198 9.11289 18.7688C7.00627 20.3942 4.35244 21.3623 1.46822 21.3623C0.972011 21.3623 0.481805 21.3345 0 21.2784C2.72403 22.9971 5.95866 24 9.43509 24" fill="#9DA9A0"/>
</svg>
