<?xml version="1.0" encoding="UTF-8" standalone="no"?>
<!-- Created with Inkscape (http://www.inkscape.org/) -->

<svg
   xmlns:dc="http://purl.org/dc/elements/1.1/"
   xmlns:cc="http://creativecommons.org/ns#"
   xmlns:rdf="http://www.w3.org/1999/02/22-rdf-syntax-ns#"
   xmlns:svg="http://www.w3.org/2000/svg"
   xmlns="http://www.w3.org/2000/svg"
   xmlns:sodipodi="http://sodipodi.sourceforge.net/DTD/sodipodi-0.dtd"
   xmlns:inkscape="http://www.inkscape.org/namespaces/inkscape"
   width="210mm"
   height="297mm"
   viewBox="0 0 210 297"
   version="1.1"
   id="svg8"
   inkscape:version="0.92.1 r15371"
   sodipodi:docname="apple_hamster.svg">
  <defs
     id="defs2" />
  <sodipodi:namedview
     id="base"
     pagecolor="#ffffff"
     bordercolor="#666666"
     borderopacity="1.0"
     inkscape:pageopacity="1"
     inkscape:pageshadow="2"
     inkscape:zoom="0.7"
     inkscape:cx="-45.97805"
     inkscape:cy="645.98666"
     inkscape:document-units="mm"
     inkscape:current-layer="layer3"
     showgrid="false"
     inkscape:window-width="396"
     inkscape:window-height="860"
     inkscape:window-x="1200"
     inkscape:window-y="18"
     inkscape:window-maximized="0"
     inkscape:pagecheckerboard="true" />
  <metadata
     id="metadata5">
    <rdf:RDF>
      <cc:Work
         rdf:about="">
        <dc:format>image/svg+xml</dc:format>
        <dc:type
           rdf:resource="http://purl.org/dc/dcmitype/StillImage" />
        <dc:title></dc:title>
      </cc:Work>
    </rdf:RDF>
  </metadata>
  <g
     inkscape:groupmode="layer"
     id="layer3"
     inkscape:label="android_layer" />
  <g
     inkscape:groupmode="layer"
     id="layer2"
     inkscape:label="apple_layer">
    <path
       inkscape:connector-curvature="0"
       id="path4"
       d="m 113.26005,157.69538 c 0.48744,4.23579 0.5518,8.3577 0.19746,12.38715 -0.48272,5.49299 -1.16242,9.4956 -2.02121,11.99746 -1.25245,4.01547 -3.3873,6.93808 -6.4096,8.78674 -2.19935,1.27556 -5.213005,2.18518 -9.033395,2.7005 -3.827105,0.52717 -7.035065,1.54947 -9.63793,3.05907 -2.729816,1.58323 -5.296187,3.9099 -7.698195,6.99544 -2.403346,3.0943 -4.547939,5.22425 -6.441821,6.41046 -2.86556,1.82961 -6.540591,2.22868 -11.032702,1.19365 -2.805012,-0.55257 -6.748942,-2.00133 -11.825823,-4.34972 -5.435575,-2.4996 -10.726555,-5.98516 -15.879227,-10.469 -5.547849,-4.85338 -9.95386,-10.11357 -13.21541,-15.78842 -3.736085,-6.50051 -5.56012,-12.91808 -5.459666,-19.24074 0.03216,-5.05046 1.249501,-9.72573 3.658451,-14.03674 2.408957,-4.311 5.728919,-7.72137 9.952559,-10.26598 2.333457,-1.35334 5.810204,-2.40299 10.431873,-3.18344 4.613697,-0.76945 7.465207,-1.4565 8.53269,-2.07561 0.798083,-0.46286 3.015593,-2.87938 6.629408,-7.22896 3.435216,-4.08234 6.721809,-6.85386 9.866782,-8.33698 8.50241,-4.05305 16.454703,-4.37581 23.844725,-0.9341 -4.723949,8.63616 -4.75811,16.91459 -0.119797,24.81896 3.622694,6.15115 8.817923,10.0052 15.560988,11.54692 3.08159,0.74341 6.14787,0.92094 9.22015,0.52816 0.36172,1.87382 0.65579,3.69906 0.87969,5.48518 z M 52.298228,94.850481 c 2.788076,4.851044 3.62704,10.403669 2.519978,16.635559 -1.379302,7.44518 -4.857089,13.30212 -10.684602,16.07601 -0.40542,-0.54083 -0.798566,-1.1295 -1.168493,-1.77315 -2.676549,-4.65699 -3.522826,-10.81137 -2.280958,-16.96499 0.60344,-3.10099 1.893076,-6.13636 3.866149,-9.105418 1.978844,-2.945179 4.154998,-5.20135 6.531306,-6.749767 0.444273,0.607007 0.846795,1.238284 1.216585,1.881696 z"
       style="stroke-width:0.09412985"
       inkscape:export-xdpi="58.392273"
       inkscape:export-ydpi="58.392273" />
  </g>
  <g
     inkscape:label="Layer 1"
     inkscape:groupmode="layer"
     id="layer1">
    <g
       id="Ebene_2_1_"
       transform="matrix(0.12995645,0,0,0.13834024,71.390539,18.434028)"
       inkscape:export-xdpi="58.392273"
       inkscape:export-ydpi="58.392273">
      <g
         id="g20">
        <path
           id="path12"
           d="m 448.25,513.56 h -34.19 c 0,-19.71 -16.03,-35.75 -35.75,-35.75 -19.71,0 -35.75,16.03 -35.75,35.75 h -34.19 c 0,-38.58 31.38,-69.94 69.94,-69.94 38.56,0 69.94,31.36 69.94,69.94 z"
           class="st0"
           inkscape:connector-curvature="0"
           style="fill:#3fbf8c" />
        <path
           id="path14"
           d="m 558.49,588.16 h -93.02 l -7.9,27.91 32.65,59.12 c 0,11.85 -4.78,25.06 -15.53,28.91 -18.36,6.53 -47.54,0.44 -61.33,-12.1 7.36,-40.97 -3.72,-84.81 -33.88,-117.85 l -25.25,23.06 c 38.7,42.4 35.69,108.41 -6.74,147.13 -42.4,38.7 -108.41,35.69 -147.13,-6.74 l -25.27,23.1 c 27.26,29.84 64.7,45.02 102.26,45.02 33.29,0 66.71,-11.94 93.21,-36.1 11.42,-10.42 20.65,-22.29 27.72,-35.13 7.67,4.6 16.22,8.24 25.18,10.88 v 88.38 h 177.08 v -88.38 c 8.96,-2.64 17.51,-6.28 25.18,-10.88 7.09,12.83 16.33,24.71 27.72,35.13 26.49,24.17 59.91,36.1 93.21,36.1 37.56,0 74.99,-15.16 102.26,-45.02 l -25.25,-23.06 c -38.74,42.45 -104.73,45.46 -147.13,6.74 -42.45,-38.74 -45.46,-104.73 -6.74,-147.13 l -25.25,-23.06 c -30.15,33.05 -41.26,76.88 -33.88,117.85 -13.81,12.52 -42.97,18.61 -61.33,12.1 -10.75,-3.85 -15.53,-17.07 -15.53,-28.91 l 32.36,-59.1 z M 494.4,800.63 h -40.64 v -50.78 c 7.74,-0.69 32.67,-2.25 39.7,-4.76 0.31,-0.12 0.62,-0.21 0.94,-0.33 z m 75.82,0 h -40.64 v -55.88 c 0.31,0.12 0.62,0.21 0.94,0.33 7.03,2.52 31.96,4.08 39.7,4.76 z"
           class="st0"
           inkscape:connector-curvature="0"
           style="fill:#3fbf8c" />
        <path
           id="path16"
           d="m 819.75,510.44 h -43.53 c 0,-76.72 -100.32,-217.61 -264.24,-217.61 -163.92,0 -264.24,140.9 -264.24,217.61 H 204.21 V 271.07 c 0,-47.58 33.23,-80.84 80.84,-80.84 17.32,0 36.96,0 54.13,7.07 16.43,6.76 36.02,22.36 36.02,58.21 v 24.83 c 40.1,-19.26 86.1,-31.05 136.78,-31.05 50.68,0 96.7,11.79 136.78,31.05 v -24.83 c 0,-35.85 19.59,-51.43 36.02,-58.21 17.2,-7.07 36.83,-7.07 54.13,-7.07 47.58,0 80.84,33.23 80.84,80.84 z M 692.29,305.64 c 34.42,23.71 62.78,52.93 83.93,83.64 V 271.07 c 0,-32.46 -23.38,-37.31 -37.31,-37.31 -43.01,0 -46.63,5.32 -46.63,21.75 v 50.13 z M 285.04,233.77 c -13.93,0 -37.31,4.85 -37.31,37.31 v 118.21 c 21.17,-30.74 49.52,-59.94 83.93,-83.64 v -50.1 c 0.03,-16.48 -3.59,-21.78 -46.62,-21.78 z"
           class="st0"
           inkscape:connector-curvature="0"
           style="fill:#3fbf8c" />
        <path
           id="path18"
           d="m 715.61,513.56 h -34.19 c 0,-19.71 -16.03,-35.75 -35.75,-35.75 -19.72,0 -35.75,16.03 -35.75,35.75 h -34.19 c 0,-38.58 31.38,-69.94 69.94,-69.94 38.56,0 69.94,31.36 69.94,69.94 z"
           class="st0"
           inkscape:connector-curvature="0"
           style="fill:#3fbf8c" />
      </g>
    </g>
  </g>
  <style
     id="style10"
     type="text/css">
	.st0{fill:#3FBF8C;}
</style>
</svg>
