<?xml version="1.0" encoding="utf-8"?>
<!-- Generator: Adobe Illustrator 24.1.0, SVG Export Plug-In . SVG Version: 6.00 Build 0)  -->
<svg version="1.1" id="Ebene_1" xmlns="http://www.w3.org/2000/svg" xmlns:xlink="http://www.w3.org/1999/xlink" x="0px" y="0px"
	 viewBox="0 0 1024 1024" style="enable-background:new 0 0 1024 1024;" xml:space="preserve">
<style type="text/css">
	.st0{fill:#3FBF8C;}
</style>
<g id="Ebene_2_1_">
	<g>
		<path class="st0" d="M448.25,513.56h-34.19c0-19.71-16.03-35.75-35.75-35.75c-19.71,0-35.75,16.03-35.75,35.75h-34.19
			c0-38.58,31.38-69.94,69.94-69.94S448.25,474.98,448.25,513.56z"/>
		<path class="st0" d="M558.49,588.16h-93.02l-7.9,27.91l32.65,59.12c0,11.85-4.78,25.06-15.53,28.91
			c-18.36,6.53-47.54,0.44-61.33-12.1c7.36-40.97-3.72-84.81-33.88-117.85l-25.25,23.06c38.7,42.4,35.69,108.41-6.74,147.13
			c-42.4,38.7-108.41,35.69-147.13-6.74l-25.27,23.1c27.26,29.84,64.7,45.02,102.26,45.02c33.29,0,66.71-11.94,93.21-36.1
			c11.42-10.42,20.65-22.29,27.72-35.13c7.67,4.6,16.22,8.24,25.18,10.88v88.38h177.08v-88.38c8.96-2.64,17.51-6.28,25.18-10.88
			c7.09,12.83,16.33,24.71,27.72,35.13c26.49,24.17,59.91,36.1,93.21,36.1c37.56,0,74.99-15.16,102.26-45.02l-25.25-23.06
			c-38.74,42.45-104.73,45.46-147.13,6.74c-42.45-38.74-45.46-104.73-6.74-147.13l-25.25-23.06
			c-30.15,33.05-41.26,76.88-33.88,117.85c-13.81,12.52-42.97,18.61-61.33,12.1c-10.75-3.85-15.53-17.07-15.53-28.91l32.36-59.1
			L558.49,588.16z M494.4,800.63h-40.64v-50.78c7.74-0.69,32.67-2.25,39.7-4.76c0.31-0.12,0.62-0.21,0.94-0.33L494.4,800.63
			L494.4,800.63z M570.22,800.63h-40.64v-55.88c0.31,0.12,0.62,0.21,0.94,0.33c7.03,2.52,31.96,4.08,39.7,4.76L570.22,800.63
			L570.22,800.63z"/>
		<path class="st0" d="M819.75,510.44h-43.53c0-76.72-100.32-217.61-264.24-217.61s-264.24,140.9-264.24,217.61h-43.53V271.07
			c0-47.58,33.23-80.84,80.84-80.84c17.32,0,36.96,0,54.13,7.07c16.43,6.76,36.02,22.36,36.02,58.21v24.83
			c40.1-19.26,86.1-31.05,136.78-31.05s96.7,11.79,136.78,31.05v-24.83c0-35.85,19.59-51.43,36.02-58.21
			c17.2-7.07,36.83-7.07,54.13-7.07c47.58,0,80.84,33.23,80.84,80.84L819.75,510.44L819.75,510.44z M692.29,305.64
			c34.42,23.71,62.78,52.93,83.93,83.64V271.07c0-32.46-23.38-37.31-37.31-37.31c-43.01,0-46.63,5.32-46.63,21.75V305.64z
			 M285.04,233.77c-13.93,0-37.31,4.85-37.31,37.31v118.21c21.17-30.74,49.52-59.94,83.93-83.64v-50.1
			C331.69,239.07,328.07,233.77,285.04,233.77z"/>
		<path class="st0" d="M715.61,513.56h-34.19c0-19.71-16.03-35.75-35.75-35.75s-35.75,16.03-35.75,35.75h-34.19
			c0-38.58,31.38-69.94,69.94-69.94S715.61,474.98,715.61,513.56z"/>
	</g>
</g>
</svg>
