<?xml version="1.0" encoding="UTF-8"?>
<svg width="139px" height="191px" viewBox="0 0 139 191" version="1.1" xmlns="http://www.w3.org/2000/svg" xmlns:xlink="http://www.w3.org/1999/xlink">
    <!-- Generator: Sketch 63.1 (92452) - https://sketch.com -->
    <title>Logo</title>
    <desc>Created with Sketch.</desc>
    <g id="Page-1" stroke="none" stroke-width="1" fill="none" fill-rule="evenodd">
        <g id="Desktop-HD-Copy" transform="translate(-652.000000, -88.000000)">
            <g id="Logo" transform="translate(652.000000, 88.000000)">
                <g id="Group-2" fill="#172A3A">
                    <g id="Group-3" transform="translate(12.000000, 107.000000)" fill-rule="nonzero">
                        <path d="M8.37372031,29.8063093 L12.8862563,27.1466735 L15.3630993,31.3490695 L10.8505633,34.0087054 L12.4134421,36.6604018 L23.2993537,30.2443731 L21.7364749,27.5926767 L17.3790089,30.1609161 L14.9021659,25.95852 L19.259632,23.3902806 L17.6967532,20.7385842 L6.81084154,27.1546128 L8.37372031,29.8063093 Z M19.9909846,46.5962227 L21.8148881,45.3010177 L25.4691153,47.9883807 L24.7762821,50.1153885 L27.429947,52.0669259 L31.4137816,39.2669055 L28.3975941,37.0487646 L17.3518205,44.6553494 L19.9909846,46.5962227 Z M26.2319145,45.6447055 L23.8247649,43.8744585 L27.6943744,41.1343566 L26.2319145,45.6447055 Z M38.2026346,57.7315577 L39.6797147,50.7582788 L41.0729489,58.3395477 L43.3093287,58.8132577 L47.6567231,52.4479689 L46.179643,59.4212478 L49.1908316,60.0590778 L51.8092917,47.6973561 L48.3578709,46.9662761 L43.0130835,54.7394425 L41.261327,45.463086 L37.8099061,44.732006 L35.191446,57.0937276 L38.2026346,57.7315577 Z M63.9437696,61.6104266 C65.3560229,61.4442202 66.4496359,60.9318847 67.2246085,60.0734202 C67.9995812,59.2149557 68.3246525,58.2553835 68.1998224,57.1947038 C68.1282905,56.5868986 67.9537088,56.0788216 67.6760772,55.6704729 C67.3984455,55.2621241 67.0638582,54.9601617 66.6723151,54.7645856 C66.2807721,54.5690094 65.8550547,54.4167244 65.3951631,54.3077304 C64.9352714,54.1987365 64.4752055,54.1139287 64.0149654,54.053307 C63.5547252,53.9926854 63.1354958,53.9211958 62.7572773,53.8388383 C62.3790588,53.7564807 62.0630557,53.6124285 61.8092681,53.4066815 C61.5554804,53.2009345 61.4061452,52.907377 61.3612625,52.526009 C61.3163798,52.144641 61.4041733,51.8382797 61.6246433,51.6069249 C61.8451132,51.3755702 62.1460321,51.2374514 62.5274001,51.1925687 C62.9087681,51.147686 63.2359855,51.233025 63.5090524,51.4485859 C63.7821193,51.6641468 63.9691373,51.9955593 64.0701066,52.4428234 L64.0701066,52.4428234 L67.3951587,52.0515021 C67.2037184,50.7328396 66.6547605,49.8157168 65.7482849,49.3001337 C64.8418093,48.7845506 63.7122392,48.6063558 62.3595746,48.7655492 C61.00691,48.9247427 59.9369562,49.4071074 59.149713,50.2126434 C58.3624698,51.0181793 58.0375749,52.004917 58.1750283,53.1728565 C58.2451576,53.768744 58.419038,54.2708621 58.6966696,54.6792108 C58.9743012,55.0875595 59.3085379,55.3865425 59.6993797,55.5761598 C60.0902215,55.765777 60.5159388,55.9180621 60.9765318,56.0330149 C61.4371247,56.1479677 61.8975413,56.235755 62.3577814,56.2963767 C62.8180216,56.3569983 63.2376016,56.4314673 63.6165214,56.5197837 C63.9954412,56.6081001 64.3114443,56.7521524 64.5645306,56.9519405 C64.817617,57.1517286 64.965199,57.4303889 65.0072765,57.7879214 C65.0493541,58.1454539 64.9589317,58.4551453 64.7360094,58.7169957 C64.5130871,58.9788461 64.1811475,59.1357192 63.7401908,59.1876149 C62.7986886,59.2984191 62.2273168,58.8581848 62.0260753,57.8669119 L62.0260753,57.8669119 L58.7725297,58.2498178 C58.9198012,59.5011815 59.465429,60.4156755 60.4094133,60.9932997 C61.3533975,61.570924 62.5315162,61.776633 63.9437696,61.6104266 Z M83.6986004,56.4248696 L78.765974,47.3873471 L81.799548,45.7316403 L80.6784966,43.6776579 L71.9253716,48.4550617 L73.046423,50.5090441 L76.0641972,48.8619609 L80.9968235,57.8994834 L83.6986004,56.4248696 Z M99.8763764,43.8801094 L98.0873451,42.37181 L95.1403602,45.8673019 L92.8971902,43.9761265 L95.496106,40.893488 L93.7070748,39.3851886 L91.1081589,42.4678271 L89.0301302,40.7158793 L91.9771152,37.2203874 L90.1880839,35.712088 L85.2571051,41.5608442 L94.9453976,49.7288655 L99.8763764,43.8801094 Z M107.674519,32.8398229 L103.184185,30.8437525 L103.330418,30.5147903 L108.975987,29.9120594 L110.438309,26.6224375 L104.476552,27.3603909 C104.622833,26.322311 104.468153,25.4590531 104.012513,24.7706174 C103.556872,24.0821816 102.994607,23.5892943 102.325717,23.2919554 C101.349796,22.858133 100.350695,22.8605017 99.3284148,23.2990616 C98.3061344,23.7376215 97.4976552,24.6257912 96.9029774,25.9635708 L96.9029774,25.9635708 L94.8776605,30.5196972 L106.424234,35.6524497 L107.674519,32.8398229 Z M101.820962,28.1497432 L101.045931,29.8932428 L98.2662006,28.6575802 L99.0412316,26.9140805 C99.2264592,26.4973951 99.5067135,26.2214431 99.8819947,26.0862246 C100.257276,25.951006 100.650518,25.9747919 101.061721,26.1575823 C101.472923,26.3403726 101.74979,26.6111843 101.89232,26.9700173 C102.03485,27.3288504 102.011064,27.7220923 101.820962,28.1497432 L101.820962,28.1497432 Z" id="HAMSTER"></path>
                    </g>
                    <g id="Group-4" transform="translate(28.000000, 27.813576)" fill-rule="nonzero">
                        <path d="M12.587051,26.1688171 L8.68683766,22.2540998 L12.8565854,18.0998008 L16.7567988,22.0145181 L18.2104723,20.5662304 L9.38099902,11.7039225 L7.9273255,13.1522102 L11.7386089,16.9776669 L7.56886118,21.1319658 L3.75757775,17.3065092 L2.30390422,18.7547969 L11.1333775,27.6171048 L12.587051,26.1688171 Z M24.9880653,15.9547421 L25.2067758,13.2537605 L30.2717334,11.9185272 L31.7935582,14.1606657 L33.8822005,13.6100541 L26.35472,2.63844777 L24.0572134,3.24412061 L22.9168283,16.5007653 L24.9880653,15.9547421 Z M29.3237972,10.5116921 L25.3379714,11.5624427 L25.8391701,5.34322287 L29.3237972,10.5116921 Z M41.9870597,12.6711483 L42.6538445,7.63913341 L44.9021916,7.93705852 C46.3891936,8.13409894 47.5402329,7.92044844 48.3553095,7.29610701 C49.170386,6.67176558 49.6468885,5.83914415 49.7848167,4.79824273 C49.922745,3.7573413 49.6571441,2.83848976 48.988014,2.04168811 C48.3188839,1.24488646 47.2824538,0.753482555 45.8787239,0.567476402 L45.8787239,0.567476402 L41.596158,1.0658141e-14 L39.9528409,12.401597 L41.9870597,12.6711483 Z M45.1126308,6.34894034 L42.8642837,6.05101523 L43.4199377,1.85766947 L45.6682847,2.15559458 C46.4415258,2.2580556 46.9940496,2.51889553 47.3258561,2.93811439 C47.6576626,3.35733324 47.7798229,3.89705712 47.6923369,4.55728603 C47.604851,5.21751494 47.3463387,5.70679647 46.9168002,6.02513063 C46.4872616,6.34346479 45.8858718,6.45140136 45.1126308,6.34894034 L45.1126308,6.34894034 Z M56.4332692,16.1912027 L59.2293632,11.9547378 L61.1222517,13.2040564 C62.3741621,14.0303253 63.5030368,14.3404545 64.5088755,14.134444 C65.5147143,13.9284335 66.3068278,13.3872596 66.8852161,12.5109223 C67.4636043,11.634585 67.6256563,10.6919444 67.371372,9.68300068 C67.1170877,8.67405693 66.3990438,7.77958613 65.2172404,6.9995883 L65.2172404,6.9995883 L61.6117383,4.61993388 L54.7206558,15.0608668 L56.4332692,16.1912027 Z M62.0047069,11.867016 L60.1118183,10.6176975 L62.4418966,7.08731007 L64.3347852,8.33662863 C64.9857786,8.76628846 65.3690625,9.24211768 65.4846369,9.7641163 C65.6002113,10.2861149 65.4745668,10.8250384 65.1077034,11.3808866 C64.74084,11.9367348 64.2947064,12.2641334 63.7693027,12.3630823 C63.2438989,12.4620313 62.6557003,12.2966759 62.0047069,11.867016 L62.0047069,11.867016 Z M69.6579538,28.0582895 L73.4850846,25.6234659 L82.4351971,24.8362167 L81.1984613,22.8922772 L74.5041395,23.7377705 L78.1066218,18.0324287 L76.8795479,16.1036763 L72.3836168,23.8921448 L68.556486,26.3269685 L69.6579538,28.0582895 Z" id="HAPPY"></path>
                    </g>
                    <path d="M137.714185,122.56271 C137.714185,159.589423 107.111778,189.710501 69.4988819,189.710501 C31.8882221,189.710501 1.28805161,159.589423 1.28805161,122.56271 L1.28805161,68.4372901 C1.28805161,31.4083426 31.8882221,1.28726379 69.4988819,1.28726379 C107.111778,1.28726379 137.714185,31.4083426 137.714185,68.4372901 L137.714185,122.56271 Z M69.4988819,0 C31.1771103,0 0,30.6999005 0,68.4372901 L0,122.56271 C0,160.297865 31.1771103,191 69.4988819,191 C107.82289,191 139,160.297865 139,122.56271 L139,68.4372901 C139,30.6999005 107.82289,0 69.4988819,0 L69.4988819,0 Z" id="Fill-1621"></path>
                    <path d="M132.712849,121.77769 C132.712849,157.029175 104.131844,185.710667 68.9988827,185.710667 C33.8681564,185.710667 5.28938547,157.029175 5.28938547,121.77769 L5.28938547,70.2223098 C5.28938547,34.9708252 33.8681564,6.29157529 68.9988827,6.29157529 C104.131844,6.29157529 132.712849,34.9708252 132.712849,70.2223098 L132.712849,121.77769 Z M68.9988827,5 C33.1597765,5 4,34.257768 4,70.2223098 L4,121.77769 C4,157.742232 33.1597765,187 68.9988827,187 C104.840223,187 134,157.742232 134,121.77769 L134,70.2223098 C134,34.257768 104.840223,5 68.9988827,5 L68.9988827,5 Z" id="Fill-1622"></path>
                    <path d="M23.406,93 C22.63,93 22,93.628 22,94.405 C22,95.181 22.63,95.811 23.406,95.811 C24.182,95.811 24.811,95.181 24.811,94.405 C24.811,93.628 24.182,93 23.406,93" id="Fill-1935"></path>
                    <path d="M116.406,93 C115.63,93 115,93.628 115,94.405 C115,95.181 115.63,95.811 116.406,95.811 C117.182,95.811 117.811,95.181 117.811,94.405 C117.811,93.628 117.182,93 116.406,93" id="Fill-1935"></path>
                </g>
                <g id="hamsta" transform="translate(44.000000, 72.000000)" fill="#3FBF8C" fill-rule="nonzero">
                    <path d="M20.2707715,24.0029674 L17.7344214,24.0029674 C17.7344214,22.5408012 16.5452522,21.3508902 15.0823442,21.3508902 C13.620178,21.3508902 12.4302671,22.5400593 12.4302671,24.0029674 L9.89391691,24.0029674 C9.89391691,21.1409496 12.2218101,18.8145401 15.0823442,18.8145401 C17.9428783,18.8145401 20.2707715,21.1409496 20.2707715,24.0029674 Z" id="Path"></path>
                    <path d="M28.4488131,29.537092 L21.5482196,29.537092 L20.9621662,31.6075668 L23.384273,35.9933234 C23.384273,36.8724036 23.0296736,37.8523739 22.2321958,38.1379822 C20.870178,38.6224036 18.7054896,38.1706231 17.6824926,37.2403561 C18.2284866,34.2010386 17.4065282,30.9488131 15.1691395,28.4977745 L13.2959941,30.208457 C16.1669139,33.3538576 15.9436202,38.2507418 12.7959941,41.1231454 C9.65059347,43.9940653 4.7537092,43.7707715 1.88130564,40.6231454 L0.00667655786,42.3367953 C2.02893175,44.5504451 4.80637982,45.6765579 7.59272997,45.6765579 C10.0623145,45.6765579 12.541543,44.7908012 14.5074184,42.9985163 C15.3545994,42.2255193 16.0393175,41.3449555 16.5637982,40.3924332 C17.1327893,40.7336795 17.7670623,41.0037092 18.4317507,41.1995549 L18.4317507,47.7559347 L31.5682493,47.7559347 L31.5682493,41.1995549 C32.2329377,41.0037092 32.8672107,40.7336795 33.4362018,40.3924332 C33.9621662,41.3442136 34.6476261,42.2255193 35.4925816,42.9985163 C37.4577151,44.791543 39.9369436,45.6765579 42.40727,45.6765579 C45.1936202,45.6765579 47.9703264,44.5519288 49.9933234,42.3367953 L48.120178,40.6261128 C45.2462908,43.7752226 40.3508902,43.9985163 37.2054896,41.1261128 C34.0563798,38.2522255 33.8330861,33.3568249 36.7054896,30.2114243 L34.8323442,28.5007418 C32.5956973,30.9525223 31.7715134,34.2040059 32.3189911,37.2433234 C31.2945104,38.1721068 29.1313056,38.6238872 27.7692878,38.1409496 C26.9718101,37.8553412 26.6172107,36.8746291 26.6172107,35.9962908 L29.0178042,31.6120178 L28.4488131,29.537092 Z M23.694362,45.2989614 L20.6795252,45.2989614 L20.6795252,41.5318991 C21.2537092,41.4807122 23.1031157,41.3649852 23.6246291,41.1787834 C23.6476261,41.1698813 23.6706231,41.1632047 23.694362,41.1543027 L23.694362,45.2989614 L23.694362,45.2989614 Z M29.3189911,45.2989614 L26.3041543,45.2989614 L26.3041543,41.1535608 C26.3271513,41.1624629 26.3501484,41.1691395 26.3738872,41.1780415 C26.8954006,41.3649852 28.7448071,41.4807122 29.3189911,41.5311573 L29.3189911,45.2989614 L29.3189911,45.2989614 Z" id="Shape"></path>
                    <path d="M47.8301187,23.7715134 L44.6008902,23.7715134 C44.6008902,18.0801187 37.1587537,7.62833828 24.9985163,7.62833828 C12.8382789,7.62833828 5.39614243,18.0808605 5.39614243,23.7715134 L2.16691395,23.7715134 L2.16691395,6.01409496 C2.16691395,2.48442136 4.63204748,0.0170623145 8.16394659,0.0170623145 C9.44881306,0.0170623145 10.9057864,0.0170623145 12.1795252,0.541543027 C13.398368,1.04302671 14.851632,2.20029674 14.851632,4.85979228 L14.851632,6.70178042 C17.8264095,5.27299703 21.2388724,4.39836795 24.9985163,4.39836795 C28.7581602,4.39836795 32.1721068,5.27299703 35.1454006,6.70178042 L35.1454006,4.85979228 C35.1454006,2.20029674 36.5986647,1.04451039 37.8175074,0.541543027 C39.0934718,0.0170623145 40.5497033,0.0170623145 41.8330861,0.0170623145 C45.3627596,0.0170623145 47.8301187,2.48219585 47.8301187,6.01409496 L47.8301187,23.7715134 L47.8301187,23.7715134 Z M38.3746291,8.57863501 C40.9280415,10.3375371 43.0318991,12.5051929 44.6008902,14.7833828 L44.6008902,6.01409496 C44.6008902,3.60608309 42.8664688,3.2462908 41.8330861,3.2462908 C38.6424332,3.2462908 38.3738872,3.64094955 38.3738872,4.85979228 L38.3738872,8.57863501 L38.3746291,8.57863501 Z M8.16320475,3.24703264 C7.12982196,3.24703264 5.39540059,3.60682493 5.39540059,6.0148368 L5.39540059,14.7841246 C6.96587537,12.5037092 9.0689911,10.3375371 11.6216753,8.57937685 L11.6216753,4.86275964 C11.6238872,3.64020772 11.3553412,3.24703264 8.16320475,3.24703264 Z" id="Shape"></path>
                    <path d="M40.1045994,24.0029674 L37.5682493,24.0029674 C37.5682493,22.5408012 36.3790801,21.3508902 34.9161721,21.3508902 C33.4532641,21.3508902 32.264095,22.5400593 32.264095,24.0029674 L29.7277448,24.0029674 C29.7277448,21.1409496 32.055638,18.8145401 34.9161721,18.8145401 C37.7767062,18.8145401 40.1045994,21.1409496 40.1045994,24.0029674 Z" id="Path"></path>
                </g>
            </g>
        </g>
    </g>
</svg>