<?xml version="1.0" encoding="UTF-8"?>
<svg width="21px" height="13px" viewBox="0 0 21 13" version="1.1" xmlns="http://www.w3.org/2000/svg" xmlns:xlink="http://www.w3.org/1999/xlink">
    <!-- Generator: sketchtool 63.1 (101010) - https://sketch.com -->
    <title>0850F24E-0662-4229-B04C-F6E98E707A7A</title>
    <desc>Created with sketchtool.</desc>
    <defs>
        <filter x="-10.9%" y="-15.5%" width="121.7%" height="131.0%" filterUnits="objectBoundingBox" id="filter-1">
            <feOffset dx="0" dy="5" in="SourceAlpha" result="shadowOffsetOuter1"></feOffset>
            <feGaussianBlur stdDeviation="10" in="shadowOffsetOuter1" result="shadowBlurOuter1"></feGaussianBlur>
            <feColorMatrix values="0 0 0 0 0.0431372549   0 0 0 0 0   0 0 0 0 0.2  0 0 0 0.2 0" type="matrix" in="shadowBlurOuter1" result="shadowMatrixOuter1"></feColorMatrix>
            <feMerge>
                <feMergeNode in="shadowMatrixOuter1"></feMergeNode>
                <feMergeNode in="SourceGraphic"></feMergeNode>
            </feMerge>
        </filter>
    </defs>
    <g id="Page-1" stroke="none" stroke-width="1" fill="none" fill-rule="evenodd">
        <g id="Selected-/-No-Reports-Available" transform="translate(-532.000000, -910.000000)" fill-rule="nonzero" stroke="#FFFFFF">
            <g id="Card" filter="url(#filter-1)" transform="translate(503.000000, 824.000000)">
                <g id="Text" transform="translate(29.000000, 30.000000)">
                    <g id="Availability-Icons" transform="translate(0.000000, 56.000000)">
                        <g id="Icon:-Person-Outline">
                            <circle id="Oval" cx="2.5" cy="1.30208333" r="1"></circle>
                            <path d="M0.986182847,4.04907042 C0.936763273,4.09377155 0.901147445,4.15345907 0.885784638,4.22154866 L1.36906829,8.40617786 L1.71155505,11.8304565 C1.72005352,11.915774 1.75974753,11.9907357 1.81902994,12.0443042 C1.87864347,12.0981718 1.9578088,12.1302083 2.04403646,12.1302083 L2.95653646,12.1302083 C3.04253501,12.1302083 3.12142869,12.0983021 3.18081833,12.0445828 C3.24922717,11.9827054 3.29138556,11.8922477 3.28983437,11.790647 L4.48678137,7.96272158 L3.9652839,4.18046538 C3.90613037,4.16096064 3.83540028,4.14315706 3.75204438,4.12478982 C3.2778283,4.0202976 2.49635372,3.96354167 0.986182847,4.04907042 Z" id="Path"></path>
                        </g>
                        <g id="Icon:-Person-Outline-Copy" transform="translate(8.000000, 0.000000)">
                            <circle id="Oval" cx="2.5" cy="1.30208333" r="1"></circle>
                            <path d="M0.986182847,4.04907042 C0.936763273,4.09377155 0.901147445,4.15345907 0.885784638,4.22154866 L1.36906829,8.40617786 L1.71155505,11.8304565 C1.72005352,11.915774 1.75974753,11.9907357 1.81902994,12.0443042 C1.87864347,12.0981718 1.9578088,12.1302083 2.04403646,12.1302083 L2.95653646,12.1302083 C3.04253501,12.1302083 3.12142869,12.0983021 3.18081833,12.0445828 C3.24922717,11.9827054 3.29138556,11.8922477 3.28983437,11.790647 L4.48678137,7.96272158 L3.9652839,4.18046538 C3.90613037,4.16096064 3.83540028,4.14315706 3.75204438,4.12478982 C3.2778283,4.0202976 2.49635372,3.96354167 0.986182847,4.04907042 Z" id="Path"></path>
                        </g>
                        <g id="Icon:-Person-Outline-Copy-2" transform="translate(16.000000, 0.000000)">
                            <circle id="Oval" cx="2.5" cy="1.30208333" r="1"></circle>
                            <path d="M0.986182847,4.04907042 C0.936763273,4.09377155 0.901147445,4.15345907 0.885784638,4.22154866 L1.36906829,8.40617786 L1.71155505,11.8304565 C1.72005352,11.915774 1.75974753,11.9907357 1.81902994,12.0443042 C1.87864347,12.0981718 1.9578088,12.1302083 2.04403646,12.1302083 L2.95653646,12.1302083 C3.04253501,12.1302083 3.12142869,12.0983021 3.18081833,12.0445828 C3.24922717,11.9827054 3.29138556,11.8922477 3.28983437,11.790647 L4.48678137,7.96272158 L3.9652839,4.18046538 C3.90613037,4.16096064 3.83540028,4.14315706 3.75204438,4.12478982 C3.2778283,4.0202976 2.49635372,3.96354167 0.986182847,4.04907042 Z" id="Path"></path>
                        </g>
                    </g>
                </g>
            </g>
        </g>
    </g>
</svg>
