<?xml version="1.0" encoding="UTF-8"?>
<svg width="59px" height="51px" viewBox="0 0 59 51" version="1.1" xmlns="http://www.w3.org/2000/svg" xmlns:xlink="http://www.w3.org/1999/xlink">
    <!-- Generator: sketchtool 63.1 (101010) - https://sketch.com -->
    <title>79039275-5FDD-46AF-A1C4-C5E14DA624A1</title>
    <desc>Created with sketchtool.</desc>
    <defs>
        <filter x="-16.1%" y="-11.5%" width="132.1%" height="123.0%" filterUnits="objectBoundingBox" id="filter-1">
            <feOffset dx="0" dy="5" in="SourceAlpha" result="shadowOffsetOuter1"></feOffset>
            <feGaussianBlur stdDeviation="10" in="shadowOffsetOuter1" result="shadowBlurOuter1"></feGaussianBlur>
            <feColorMatrix values="0 0 0 0 0.0431372549   0 0 0 0 0   0 0 0 0 0.2  0 0 0 0.4 0" type="matrix" in="shadowBlurOuter1" result="shadowMatrixOuter1"></feColorMatrix>
            <feMerge>
                <feMergeNode in="shadowMatrixOuter1"></feMergeNode>
                <feMergeNode in="SourceGraphic"></feMergeNode>
            </feMerge>
        </filter>
    </defs>
    <g id="Page-1" stroke="none" stroke-width="1" fill="none" fill-rule="evenodd">
        <g id="Selected" transform="translate(-215.000000, -324.000000)" fill-rule="nonzero">
            <g id="Search-Component" filter="url(#filter-1)" transform="translate(39.000000, 105.000000)">
                <g id="Results-List" transform="translate(0.000000, 195.000000)">
                    <g id="Result">
                        <g id="Status" transform="translate(195.000000, 35.000000)">
                            <g id="Icon:-Availability---Low" transform="translate(0.000000, 3.000000)">
                                <g id="Icon:-Person" fill="#0B0033">
                                    <circle id="Oval" cx="2.5" cy="1.30208333" r="1.30208333"></circle>
                                    <path d="M4.99736979,8.00520833 L4.61820312,4.214375 C4.57570312,3.78604167 4.21903646,3.46354167 3.78986979,3.46354167 L1.21070312,3.46354167 C0.780703125,3.46354167 0.424036458,3.78604167 0.381536458,4.21354167 L0.00236979167,8.00520833 C-0.009296875,8.12270833 0.0290364583,8.23854167 0.108203125,8.326875 C0.186536458,8.41354167 0.299036458,8.46354167 0.416536458,8.46354167 L0.872369792,8.46354167 L1.21403646,11.8802083 C1.25653646,12.306875 1.61403646,12.6302083 2.04403646,12.6302083 L2.95653646,12.6302083 C3.38653646,12.6302083 3.74320312,12.306875 3.78570312,11.8802083 L4.12736979,8.46354167 L4.58320312,8.46354167 C4.70153646,8.46354167 4.81320312,8.41354167 4.89236979,8.326875 C4.97153646,8.239375 5.00986979,8.12270833 4.99736979,8.00520833 Z" id="Path"></path>
                                </g>
                                <g id="Icon:-Person-Outline" transform="translate(16.000000, 0.000000)" stroke="#9DA9A0">
                                    <circle id="Oval" cx="2.5" cy="1.30208333" r="1"></circle>
                                    <path d="M0.986182847,4.04907042 C0.936763273,4.09377155 0.901147445,4.15345907 0.885784638,4.22154866 L1.36906829,8.40617786 L1.71155505,11.8304565 C1.72005352,11.915774 1.75974753,11.9907357 1.81902994,12.0443042 C1.87864347,12.0981718 1.9578088,12.1302083 2.04403646,12.1302083 L2.95653646,12.1302083 C3.04253501,12.1302083 3.12142869,12.0983021 3.18081833,12.0445828 C3.24922717,11.9827054 3.29138556,11.8922477 3.28983437,11.790647 L4.48678137,7.96272158 L3.9652839,4.18046538 C3.90613037,4.16096064 3.83540028,4.14315706 3.75204438,4.12478982 C3.2778283,4.0202976 2.49635372,3.96354167 0.986182847,4.04907042 Z" id="Path"></path>
                                </g>
                                <g id="Icon:-Person-Outline" transform="translate(8.000000, 0.000000)" stroke="#9DA9A0">
                                    <circle id="Oval" cx="2.5" cy="1.30208333" r="1"></circle>
                                    <path d="M0.986182847,4.04907042 C0.936763273,4.09377155 0.901147445,4.15345907 0.885784638,4.22154866 L1.36906829,8.40617786 L1.71155505,11.8304565 C1.72005352,11.915774 1.75974753,11.9907357 1.81902994,12.0443042 C1.87864347,12.0981718 1.9578088,12.1302083 2.04403646,12.1302083 L2.95653646,12.1302083 C3.04253501,12.1302083 3.12142869,12.0983021 3.18081833,12.0445828 C3.24922717,11.9827054 3.29138556,11.8922477 3.28983437,11.790647 L4.48678137,7.96272158 L3.9652839,4.18046538 C3.90613037,4.16096064 3.83540028,4.14315706 3.75204438,4.12478982 C3.2778283,4.0202976 2.49635372,3.96354167 0.986182847,4.04907042 Z" id="Path"></path>
                                </g>
                            </g>
                        </g>
                    </g>
                </g>
            </g>
        </g>
    </g>
</svg>