<?xml version="1.0" encoding="UTF-8"?>
<svg width="30px" height="44px" viewBox="0 0 30 44" version="1.1" xmlns="http://www.w3.org/2000/svg" xmlns:xlink="http://www.w3.org/1999/xlink">
    <!-- Generator: sketchtool 63.1 (101010) - https://sketch.com -->
    <title>56FF3172-3B2F-4426-A973-6ACCCB2727C1</title>
    <desc>Created with sketchtool.</desc>
    <g id="Page-1" stroke="none" stroke-width="1" fill="none" fill-rule="evenodd">
        <g id="Overview" transform="translate(-691.000000, -386.000000)" fill="#0B0033" fill-rule="nonzero">
            <g id="Icon:-Moderate" transform="translate(691.000000, 386.000000)">
                <path d="M14.6286,0 C6.56254286,0 0,6.56254286 0,14.6286 C0,17.0500286 0.6054,19.4508857 1.75628571,21.5803714 L13.8286286,43.4142857 C13.9893429,43.7053714 14.2956,43.8857143 14.6286,43.8857143 C14.9616,43.8857143 15.2678571,43.7053714 15.4285714,43.4142857 L27.5053714,21.5731714 C28.6518,19.4508857 29.2572,17.0499429 29.2572,14.6285143 C29.2572,6.56254286 22.6946571,0 14.6286,0 Z M14.6286,21.9428571 C10.5955714,21.9428571 7.31434286,18.6616286 7.31434286,14.6286 C7.31434286,10.5955714 10.5955714,7.31434286 14.6286,7.31434286 C18.6616286,7.31434286 21.9428571,10.5955714 21.9428571,14.6286 C21.9428571,18.6616286 18.6616286,21.9428571 14.6286,21.9428571 Z" id="Shape"></path>
            </g>
        </g>
    </g>
</svg>