<?xml version="1.0" encoding="utf-8"?>
<!-- Generator: Adobe Illustrator 24.1.0, SVG Export Plug-In . SVG Version: 6.00 Build 0)  -->
<svg version="1.1" id="Ebene_1" xmlns="http://www.w3.org/2000/svg" xmlns:xlink="http://www.w3.org/1999/xlink" x="0px" y="0px"
	 viewBox="0 0 30 44" style="enable-background:new 0 0 30 44;" xml:space="preserve">
<style type="text/css">
	.st0{fill:#9DA9A0;}
	.st1{fill:#BAD1CD;}
	.st2{fill:#FE5F55;}
	.st3{fill:#FF9282;}
	.st4{fill:#FFA726;}
	.st5{fill:#FFE18D;}
	.st6{fill:#26C485;}
	.st7{fill:#68F8B5;}
</style>
<desc>Created with sketchtool.</desc>
<g id="Page-1">
	<g id="Overview" transform="translate(-691.000000, -386.000000)">
		<g id="Icon:-Moderate" transform="translate(691.000000, 386.000000)">
			<path id="Shape" class="st0" d="M133.1,0.1c-8.1,0-14.6,6.6-14.6,14.6c0,2.4,0.6,4.8,1.8,7l12.1,21.8c0.2,0.3,0.5,0.5,0.8,0.5
				c0.3,0,0.6-0.2,0.8-0.5L146,21.6c1.2-2.1,1.8-4.5,1.8-6.9C147.7,6.6,141.2,0.1,133.1,0.1z M133.1,22c-4,0-7.3-3.3-7.3-7.3
				c0-4,3.3-7.3,7.3-7.3c4,0,7.3,3.3,7.3,7.3C140.4,18.7,137.1,22,133.1,22z"/>
			<path class="st1" d="M140.4,14.7c0,4-3.3,7.3-7.3,7.3c-4,0-7.3-3.3-7.3-7.3c0-4,3.3-7.3,7.3-7.3C137.1,7.4,140.4,10.7,140.4,14.7
				z"/>
		</g>
	</g>
</g>
<g id="Page-1_2_">
	<g id="Overview_2_" transform="translate(-691.000000, -386.000000)">
		<g id="Icon:-Moderate_2_" transform="translate(691.000000, 386.000000)">
			<path id="Shape_2_" class="st2" d="M98.3,0.1c-8.1,0-14.6,6.6-14.6,14.6c0,2.4,0.6,4.8,1.8,7l12.1,21.8c0.2,0.3,0.5,0.5,0.8,0.5
				c0.3,0,0.6-0.2,0.8-0.5l12.1-21.8c1.2-2.1,1.8-4.5,1.8-6.9C112.9,6.6,106.4,0.1,98.3,0.1z M98.3,22c-4,0-7.3-3.3-7.3-7.3
				c0-4,3.3-7.3,7.3-7.3c4,0,7.3,3.3,7.3,7.3C105.6,18.7,102.3,22,98.3,22z"/>
			<path class="st3" d="M105.6,14.7c0,4-3.3,7.3-7.3,7.3c-4,0-7.3-3.3-7.3-7.3c0-4,3.3-7.3,7.3-7.3C102.3,7.4,105.6,10.7,105.6,14.7
				z"/>
		</g>
	</g>
</g>
<g id="Page-1_1_">
	<g id="Overview_1_" transform="translate(-691.000000, -386.000000)">
		<g id="Icon:-Moderate_1_" transform="translate(691.000000, 386.000000)">
			<path id="Shape_1_" class="st4" d="M61.3,0.1c-8.1,0-14.6,6.6-14.6,14.6c0,2.4,0.6,4.8,1.8,7l12.1,21.8c0.2,0.3,0.5,0.5,0.8,0.5
				c0.3,0,0.6-0.2,0.8-0.5l12.1-21.8c1.2-2.1,1.8-4.5,1.8-6.9C75.9,6.6,69.3,0.1,61.3,0.1z M61.3,22c-4,0-7.3-3.3-7.3-7.3
				c0-4,3.3-7.3,7.3-7.3c4,0,7.3,3.3,7.3,7.3C68.6,18.7,65.3,22,61.3,22z"/>
			<path class="st5" d="M68.6,14.7c0,4-3.3,7.3-7.3,7.3c-4,0-7.3-3.3-7.3-7.3c0-4,3.3-7.3,7.3-7.3C65.3,7.4,68.6,10.7,68.6,14.7z"/>
		</g>
	</g>
</g>
<g id="Page-1_3_">
	<g id="Overview_3_" transform="translate(-691.000000, -386.000000)">
		<g id="Icon:-Moderate_3_" transform="translate(691.000000, 386.000000)">
			<path id="Shape_3_" class="st6" d="M15,0.1C6.9,0.1,0.4,6.6,0.4,14.7c0,2.4,0.6,4.8,1.8,7l12.1,21.8c0.2,0.3,0.5,0.5,0.8,0.5
				c0.3,0,0.6-0.2,0.8-0.5l12.1-21.8c1.2-2.1,1.8-4.5,1.8-6.9C29.6,6.6,23.1,0.1,15,0.1z M15,22c-4,0-7.3-3.3-7.3-7.3
				c0-4,3.3-7.3,7.3-7.3c4,0,7.3,3.3,7.3,7.3C22.3,18.7,19,22,15,22z"/>
			<path class="st7" d="M22.3,14.7c0,4-3.3,7.3-7.3,7.3c-4,0-7.3-3.3-7.3-7.3c0-4,3.3-7.3,7.3-7.3C19,7.4,22.3,10.7,22.3,14.7z"/>
		</g>
	</g>
</g>
</svg>
