<?xml version="1.0" encoding="UTF-8"?>
<svg width="21px" height="13px" viewBox="0 0 21 13" version="1.1" xmlns="http://www.w3.org/2000/svg" xmlns:xlink="http://www.w3.org/1999/xlink">
    <!-- Generator: sketchtool 63.1 (101010) - https://sketch.com -->
    <title>9AC51830-C6C9-4739-84CF-6F0FE2DA47E0</title>
    <desc>Created with sketchtool.</desc>
    <defs>
        <filter x="-16.1%" y="-11.5%" width="132.1%" height="123.0%" filterUnits="objectBoundingBox" id="filter-1">
            <feOffset dx="0" dy="5" in="SourceAlpha" result="shadowOffsetOuter1"></feOffset>
            <feGaussianBlur stdDeviation="10" in="shadowOffsetOuter1" result="shadowBlurOuter1"></feGaussianBlur>
            <feColorMatrix values="0 0 0 0 0.0431372549   0 0 0 0 0   0 0 0 0 0.2  0 0 0 0.4 0" type="matrix" in="shadowBlurOuter1" result="shadowMatrixOuter1"></feColorMatrix>
            <feMerge>
                <feMergeNode in="shadowMatrixOuter1"></feMergeNode>
                <feMergeNode in="SourceGraphic"></feMergeNode>
            </feMerge>
        </filter>
    </defs>
    <g id="Page-1" stroke="none" stroke-width="1" fill="none" fill-rule="evenodd">
        <g id="Selected" transform="translate(-234.000000, -338.000000)" fill-rule="nonzero">
            <g id="Search-Component" filter="url(#filter-1)" transform="translate(39.000000, 105.000000)">
                <g id="Results-List" transform="translate(0.000000, 195.000000)">
                    <g id="Result">
                        <g id="Status" transform="translate(195.000000, 35.000000)">
                            <g id="Icon:-Availability---Low" transform="translate(0.000000, 3.000000)">
                                <g id="Icon:-Person" fill="#0B0033">
                                    <circle id="Oval" cx="2.5" cy="1.30208333" r="1.30208333"></circle>
                                    <path d="M4.99736979,8.00520833 L4.61820312,4.214375 C4.57570312,3.78604167 4.21903646,3.46354167 3.78986979,3.46354167 L1.21070312,3.46354167 C0.780703125,3.46354167 0.424036458,3.78604167 0.381536458,4.21354167 L0.00236979167,8.00520833 C-0.009296875,8.12270833 0.0290364583,8.23854167 0.108203125,8.326875 C0.186536458,8.41354167 0.299036458,8.46354167 0.416536458,8.46354167 L0.872369792,8.46354167 L1.21403646,11.8802083 C1.25653646,12.306875 1.61403646,12.6302083 2.04403646,12.6302083 L2.95653646,12.6302083 C3.38653646,12.6302083 3.74320312,12.306875 3.78570312,11.8802083 L4.12736979,8.46354167 L4.58320312,8.46354167 C4.70153646,8.46354167 4.81320312,8.41354167 4.89236979,8.326875 C4.97153646,8.239375 5.00986979,8.12270833 4.99736979,8.00520833 Z" id="Path"></path>
                                </g>
                                <g id="Icon:-Person-Outline" transform="translate(16.000000, 0.000000)" stroke="#9DA9A0">
                                    <path d="M3.78986979,3.96354167 L0.885782821,4.22153292 L1.36906829,8.40617786 L2.04403646,12.1302083 L3.28983931,11.7906312 L4.48956428,7.95382163 L3.78986979,3.96354167 Z M2.5,0.5 C2.2785108,0.5 2.07798997,0.589776235 1.93284144,0.734924769 C1.7876929,0.880073303 1.69791667,1.08059414 1.69791667,1.30208333 C1.69791667,1.52357253 1.7876929,1.72409336 1.93284144,1.8692419 C2.07798997,2.01439043 2.2785108,2.10416667 2.5,2.10416667 C2.7214892,2.10416667 2.92201003,2.01439043 3.06715856,1.8692419 C3.2123071,1.72409336 3.30208333,1.52357253 3.30208333,1.30208333 C3.30208333,1.08059414 3.2123071,0.880073303 3.06715856,0.734924769 C2.92201003,0.589776235 2.7214892,0.5 2.5,0.5 Z" id="Shape"></path>
                                </g>
                                <g id="Icon:-Person-Outline" transform="translate(8.000000, 0.000000)" stroke="#9DA9A0">
                                    <path d="M3.78986979,3.96354167 L0.885782821,4.22153292 L1.36906829,8.40617786 L2.04403646,12.1302083 L3.28983931,11.7906312 L4.48956428,7.95382163 L3.78986979,3.96354167 Z M2.5,0.5 C2.2785108,0.5 2.07798997,0.589776235 1.93284144,0.734924769 C1.7876929,0.880073303 1.69791667,1.08059414 1.69791667,1.30208333 C1.69791667,1.52357253 1.7876929,1.72409336 1.93284144,1.8692419 C2.07798997,2.01439043 2.2785108,2.10416667 2.5,2.10416667 C2.7214892,2.10416667 2.92201003,2.01439043 3.06715856,1.8692419 C3.2123071,1.72409336 3.30208333,1.52357253 3.30208333,1.30208333 C3.30208333,1.08059414 3.2123071,0.880073303 3.06715856,0.734924769 C2.92201003,0.589776235 2.7214892,0.5 2.5,0.5 Z" id="Shape"></path>
                                </g>
                            </g>
                        </g>
                    </g>
                </g>
            </g>
        </g>
    </g>
</svg>